<?xml version="1.0" encoding="utf-8"?>
<!-- Generator: Adobe Illustrator 24.2.3, SVG Export Plug-In . SVG Version: 6.00 Build 0)  -->
<svg version="1.1" id="Layer_1" xmlns="http://www.w3.org/2000/svg" xmlns:xlink="http://www.w3.org/1999/xlink" x="0px" y="0px"
	 viewBox="0 0 425.2 425.2" style="enable-background:new 0 0 425.2 425.2;" xml:space="preserve">
<style type="text/css">
	.st0{fill:url(#SVGID_1_);}
	.st1{fill:url(#SVGID_2_);}
	.st2{fill:url(#SVGID_3_);}
	.st3{fill:url(#SVGID_4_);}
	.st4{fill:url(#SVGID_5_);}
	.st5{fill:url(#SVGID_6_);}
	.st6{fill:url(#SVGID_7_);}
</style>
<linearGradient id="SVGID_1_" gradientUnits="userSpaceOnUse" x1="387.9023" y1="210.0482" x2="348.4158" y2="352.9517">
	<stop  offset="6.926126e-08" style="stop-color:#22A44A"/>
	<stop  offset="0.2839" style="stop-color:#23A248"/>
	<stop  offset="0.4848" style="stop-color:#269C44"/>
	<stop  offset="0.6601" style="stop-color:#2B923D"/>
	<stop  offset="0.8198" style="stop-color:#2D8533"/>
	<stop  offset="0.8995" style="stop-color:#2E7D2D"/>
</linearGradient>
<path class="st0" d="M399.56,187.13v166.18c0,2.44-1.99,4.43-4.45,4.43h-72.32c11.38-0.78,20.37-10.25,20.37-21.82V187.13
	c0-4.7,3.78-8.48,8.48-8.48h39.45C395.75,178.65,399.56,182.43,399.56,187.13z"/>
<linearGradient id="SVGID_2_" gradientUnits="userSpaceOnUse" x1="123.6158" y1="260.9865" x2="167.803" y2="344.6603">
	<stop  offset="6.926126e-08" style="stop-color:#22A44A"/>
	<stop  offset="0.2839" style="stop-color:#23A248"/>
	<stop  offset="0.4848" style="stop-color:#269C44"/>
	<stop  offset="0.6601" style="stop-color:#2B923D"/>
	<stop  offset="0.8198" style="stop-color:#2D8533"/>
	<stop  offset="0.8995" style="stop-color:#2E7D2D"/>
</linearGradient>
<path class="st1" d="M195.78,357.73h-73.85c-2.44,0-4.43-1.99-4.43-4.43v-99.9c0-4.7,3.78-8.48,8.48-8.48h39.47
	c4.67,0,8.48,3.78,8.48,8.48v81.92c0,0-0.03,0.03,0,0.05c-0.03,0.16-0.03,0.32-0.03,0.48c0,11.57,8.99,21.04,20.37,21.82
	C194.76,357.71,195.27,357.73,195.78,357.73z"/>
<linearGradient id="SVGID_3_" gradientUnits="userSpaceOnUse" x1="173.9132" y1="314.1033" x2="343.1525" y2="314.1033">
	<stop  offset="0" style="stop-color:#22A44A"/>
	<stop  offset="0.5144" style="stop-color:#2E8130"/>
	<stop  offset="0.6135" style="stop-color:#2E8332"/>
	<stop  offset="0.6967" style="stop-color:#2D8936"/>
	<stop  offset="0.7742" style="stop-color:#2A943E"/>
	<stop  offset="0.8479" style="stop-color:#22A349"/>
	<stop  offset="0.8516" style="stop-color:#22A44A"/>
</linearGradient>
<path class="st2" d="M343.15,335.38v0.54c0,11.57-8.99,21.04-20.37,21.82h-31.13c-2.12,0-4.19-0.81-5.74-2.25l-26.57-24.55
	l-26.57,24.55c-1.58,1.45-3.62,2.25-5.77,2.25h-31.23c-0.51,0-1.02-0.03-1.5-0.05c-11.38-0.78-20.37-10.25-20.37-21.82
	c0-0.16,0-0.32,0.03-0.48l23.59-21.31l45.89-41.43c1.56-1.4,3.57-2.17,5.66-2.17h20.53c2.15,0,4.19,0.8,5.77,2.25l44.73,41.35
	L343.15,335.38z"/>
<linearGradient id="SVGID_4_" gradientUnits="userSpaceOnUse" x1="25.8454" y1="219.9443" x2="286.3995" y2="219.9443">
	<stop  offset="0.062" style="stop-color:#2E8130"/>
	<stop  offset="0.2534" style="stop-color:#23A148"/>
	<stop  offset="0.2662" style="stop-color:#22A44A"/>
	<stop  offset="0.3395" style="stop-color:#23A148"/>
	<stop  offset="0.409" style="stop-color:#289A42"/>
	<stop  offset="0.4768" style="stop-color:#2C8E3A"/>
	<stop  offset="0.5358" style="stop-color:#2E8130"/>
</linearGradient>
<path class="st3" d="M286.4,178.65c-97.03,0-186.92,30.56-260.55,82.59v-64.27c0-10.12,8.21-18.33,18.35-18.33H286.4z"/>
<linearGradient id="SVGID_5_" gradientUnits="userSpaceOnUse" x1="25.8454" y1="137.753" x2="399.5567" y2="137.753">
	<stop  offset="0.4348" style="stop-color:#2E7D2D"/>
	<stop  offset="0.8172" style="stop-color:#22A44A"/>
</linearGradient>
<path class="st4" d="M399.56,163.14H25.85c104.03,0,203.91-17.9,296.67-50.77h13.09L399.56,163.14z"/>
<linearGradient id="SVGID_6_" gradientUnits="userSpaceOnUse" x1="25.8454" y1="115.1859" x2="322.5176" y2="115.1859">
	<stop  offset="6.926126e-08" style="stop-color:#22A44A"/>
	<stop  offset="0.2839" style="stop-color:#23A248"/>
	<stop  offset="0.4848" style="stop-color:#269C44"/>
	<stop  offset="0.6601" style="stop-color:#2B923D"/>
	<stop  offset="0.8198" style="stop-color:#2D8533"/>
	<stop  offset="0.8995" style="stop-color:#2E7D2D"/>
</linearGradient>
<path class="st5" d="M322.52,112.37c-92.76,32.87-192.64,50.77-296.67,50.77V75.71c0-4.67,3.81-8.48,8.48-8.48h90.97
	c2.25,0,4.4,0.89,6.01,2.5l40.17,40.17c1.58,1.58,3.73,2.47,5.98,2.47H322.52z"/>
<linearGradient id="SVGID_7_" gradientUnits="userSpaceOnUse" x1="30.6653" y1="318.0756" x2="224.3371" y2="215.5987">
	<stop  offset="0" style="stop-color:#22A44A"/>
	<stop  offset="0.0951" style="stop-color:#23A148"/>
	<stop  offset="0.1852" style="stop-color:#289A42"/>
	<stop  offset="0.2731" style="stop-color:#2C8E3A"/>
	<stop  offset="0.348" style="stop-color:#2E8130"/>
	<stop  offset="0.8202" style="stop-color:#23A148"/>
	<stop  offset="0.8516" style="stop-color:#22A44A"/>
</linearGradient>
<path class="st6" d="M294.88,178.73l-13.36,44.65c-1.07,3.6-4.37,6.04-8.13,6.04H100.63c-10.14,0-18.35,8.21-18.35,18.33v101.51
	c0,4.7-3.78,8.48-8.48,8.48H34.32c-4.67,0-8.48-3.78-8.48-8.48v-88.01c73.63-52.03,163.52-82.59,260.55-82.59
	C289.22,178.65,292.06,178.67,294.88,178.73z"/>
</svg>
